<svg id="visual" viewBox="0 0 675 900" width="675" height="900" xmlns="http://www.w3.org/2000/svg" xmlns:xlink="http://www.w3.org/1999/xlink" version="1.1"><rect x="0" y="0" width="675" height="900" fill="#151948"></rect><defs><linearGradient id="grad1_0" x1="0%" y1="0%" x2="100%" y2="100%"><stop offset="30%" stop-color="#5865f2" stop-opacity="1"></stop><stop offset="70%" stop-color="#5865f2" stop-opacity="1"></stop></linearGradient></defs><defs><linearGradient id="grad1_1" x1="0%" y1="0%" x2="100%" y2="100%"><stop offset="30%" stop-color="#5865f2" stop-opacity="1"></stop><stop offset="70%" stop-color="#353d99" stop-opacity="1"></stop></linearGradient></defs><defs><linearGradient id="grad1_2" x1="0%" y1="0%" x2="100%" y2="100%"><stop offset="30%" stop-color="#151948" stop-opacity="1"></stop><stop offset="70%" stop-color="#353d99" stop-opacity="1"></stop></linearGradient></defs><defs><linearGradient id="grad2_0" x1="0%" y1="0%" x2="100%" y2="100%"><stop offset="30%" stop-color="#5865f2" stop-opacity="1"></stop><stop offset="70%" stop-color="#5865f2" stop-opacity="1"></stop></linearGradient></defs><defs><linearGradient id="grad2_1" x1="0%" y1="0%" x2="100%" y2="100%"><stop offset="30%" stop-color="#353d99" stop-opacity="1"></stop><stop offset="70%" stop-color="#5865f2" stop-opacity="1"></stop></linearGradient></defs><defs><linearGradient id="grad2_2" x1="0%" y1="0%" x2="100%" y2="100%"><stop offset="30%" stop-color="#353d99" stop-opacity="1"></stop><stop offset="70%" stop-color="#151948" stop-opacity="1"></stop></linearGradient></defs><g transform="translate(675, 0)"><path d="M0 421.9C-32.7 382.5 -65.5 343 -107.2 330C-149 317 -199.8 330.4 -225.7 310.7C-251.7 291 -252.8 238.1 -283.2 205.7C-313.5 173.3 -373.2 161.3 -401.2 130.4C-429.2 99.5 -425.6 49.7 -421.9 0L0 0Z" fill="#242a6f"></path><path d="M0 281.3C-21.8 255 -43.6 228.7 -71.5 220C-99.3 211.3 -133.2 220.2 -150.5 207.1C-167.8 194 -168.5 158.8 -188.8 137.1C-209 115.5 -248.8 107.5 -267.5 86.9C-286.2 66.3 -283.7 33.2 -281.2 0L0 0Z" fill="#4651c4"></path><path d="M0 140.6C-10.9 127.5 -21.8 114.3 -35.7 110C-49.7 105.7 -66.6 110.1 -75.2 103.6C-83.9 97 -84.3 79.4 -94.4 68.6C-104.5 57.8 -124.4 53.8 -133.7 43.5C-143.1 33.2 -141.9 16.6 -140.6 0L0 0Z" fill="#5865f2"></path></g><g transform="translate(0, 900)"><path d="M0 -421.9C47.4 -423.2 94.9 -424.6 130.4 -401.2C165.8 -377.9 189.4 -329.9 214 -294.5C238.5 -259.1 264.2 -236.2 288 -209.3C311.8 -182.3 333.7 -151.1 355.7 -115.6C377.7 -80 399.8 -40 421.9 0L0 0Z" fill="#242a6f"></path><path d="M0 -281.2C31.6 -282.1 63.3 -283 86.9 -267.5C110.6 -251.9 126.2 -219.9 142.6 -196.3C159 -172.7 176.1 -157.5 192 -139.5C207.9 -121.5 222.5 -100.8 237.1 -77C251.8 -53.3 266.5 -26.7 281.3 0L0 0Z" fill="#4651c4"></path><path d="M0 -140.6C15.8 -141.1 31.6 -141.5 43.5 -133.7C55.3 -126 63.1 -110 71.3 -98.2C79.5 -86.4 88.1 -78.7 96 -69.8C103.9 -60.8 111.2 -50.4 118.6 -38.5C125.9 -26.7 133.3 -13.3 140.6 0L0 0Z" fill="#5865f2"></path></g></svg>