<svg id="visual" viewBox="0 0 960 540" width="960" height="540" xmlns="http://www.w3.org/2000/svg" xmlns:xlink="http://www.w3.org/1999/xlink" version="1.1"><rect x="0" y="0" width="960" height="540" fill="#151948"></rect><defs><linearGradient id="grad1_0" x1="43.8%" y1="0%" x2="100%" y2="100%"><stop offset="14.444444444444446%" stop-color="#5865f2" stop-opacity="1"></stop><stop offset="85.55555555555554%" stop-color="#5865f2" stop-opacity="1"></stop></linearGradient></defs><defs><linearGradient id="grad1_1" x1="43.8%" y1="0%" x2="100%" y2="100%"><stop offset="14.444444444444446%" stop-color="#5865f2" stop-opacity="1"></stop><stop offset="85.55555555555554%" stop-color="#353d99" stop-opacity="1"></stop></linearGradient></defs><defs><linearGradient id="grad1_2" x1="43.8%" y1="0%" x2="100%" y2="100%"><stop offset="14.444444444444446%" stop-color="#151948" stop-opacity="1"></stop><stop offset="85.55555555555554%" stop-color="#353d99" stop-opacity="1"></stop></linearGradient></defs><defs><linearGradient id="grad2_0" x1="0%" y1="0%" x2="56.3%" y2="100%"><stop offset="14.444444444444446%" stop-color="#5865f2" stop-opacity="1"></stop><stop offset="85.55555555555554%" stop-color="#5865f2" stop-opacity="1"></stop></linearGradient></defs><defs><linearGradient id="grad2_1" x1="0%" y1="0%" x2="56.3%" y2="100%"><stop offset="14.444444444444446%" stop-color="#353d99" stop-opacity="1"></stop><stop offset="85.55555555555554%" stop-color="#5865f2" stop-opacity="1"></stop></linearGradient></defs><defs><linearGradient id="grad2_2" x1="0%" y1="0%" x2="56.3%" y2="100%"><stop offset="14.444444444444446%" stop-color="#353d99" stop-opacity="1"></stop><stop offset="85.55555555555554%" stop-color="#151948" stop-opacity="1"></stop></linearGradient></defs><g transform="translate(960, 0)"><path d="M0 405C-41.1 400.5 -82.2 395.9 -125.2 385.2C-168.1 374.4 -212.9 357.5 -233.9 322C-255 286.5 -252.2 232.5 -271.8 197.5C-291.5 162.5 -333.6 146.6 -359.5 116.8C-385.4 87.1 -395.2 43.5 -405 0L0 0Z" fill="#242a6f"></path><path d="M0 270C-27.4 267 -54.8 263.9 -83.4 256.8C-112.1 249.6 -141.9 238.3 -156 214.7C-170 191 -168.1 155 -181.2 131.7C-194.3 108.3 -222.4 97.7 -239.7 77.9C-257 58 -263.5 29 -270 0L0 0Z" fill="#4651c4"></path><path d="M0 135C-13.7 133.5 -27.4 132 -41.7 128.4C-56 124.8 -71 119.2 -78 107.3C-85 95.5 -84.1 77.5 -90.6 65.8C-97.2 54.2 -111.2 48.9 -119.8 38.9C-128.5 29 -131.7 14.5 -135 0L0 0Z" fill="#5865f2"></path></g><g transform="translate(0, 540)"><path d="M0 -405C47.4 -407.9 94.9 -410.8 125.2 -385.2C155.4 -359.5 168.6 -305.3 202.2 -278.3C235.8 -251.3 290 -251.7 311.5 -226.3C333 -200.9 321.8 -149.8 331.9 -107.8C342.1 -65.8 373.5 -32.9 405 0L0 0Z" fill="#242a6f"></path><path d="M0 -270C31.6 -271.9 63.2 -273.9 83.4 -256.8C103.6 -239.7 112.4 -203.5 134.8 -185.5C157.2 -167.6 193.3 -167.8 207.6 -150.9C222 -133.9 214.5 -99.9 221.3 -71.9C228 -43.9 249 -21.9 270 0L0 0Z" fill="#4651c4"></path><path d="M0 -135C15.8 -136 31.6 -136.9 41.7 -128.4C51.8 -119.8 56.2 -101.8 67.4 -92.8C78.6 -83.8 96.7 -83.9 103.8 -75.4C111 -67 107.3 -49.9 110.6 -35.9C114 -21.9 124.5 -11 135 0L0 0Z" fill="#5865f2"></path></g></svg>