<svg id="visual" viewBox="0 0 450 900" width="450" height="900" xmlns="http://www.w3.org/2000/svg" xmlns:xlink="http://www.w3.org/1999/xlink" version="1.1"><rect x="0" y="0" width="450" height="900" fill="#151948"></rect><defs><linearGradient id="grad1_0" x1="0%" y1="0%" x2="100%" y2="100%"><stop offset="30%" stop-color="#5865f2" stop-opacity="1"></stop><stop offset="70%" stop-color="#5865f2" stop-opacity="1"></stop></linearGradient></defs><defs><linearGradient id="grad1_1" x1="0%" y1="0%" x2="100%" y2="100%"><stop offset="30%" stop-color="#5865f2" stop-opacity="1"></stop><stop offset="70%" stop-color="#353d99" stop-opacity="1"></stop></linearGradient></defs><defs><linearGradient id="grad1_2" x1="0%" y1="0%" x2="100%" y2="100%"><stop offset="30%" stop-color="#151948" stop-opacity="1"></stop><stop offset="70%" stop-color="#353d99" stop-opacity="1"></stop></linearGradient></defs><defs><linearGradient id="grad2_0" x1="0%" y1="0%" x2="100%" y2="100%"><stop offset="30%" stop-color="#5865f2" stop-opacity="1"></stop><stop offset="70%" stop-color="#5865f2" stop-opacity="1"></stop></linearGradient></defs><defs><linearGradient id="grad2_1" x1="0%" y1="0%" x2="100%" y2="100%"><stop offset="30%" stop-color="#353d99" stop-opacity="1"></stop><stop offset="70%" stop-color="#5865f2" stop-opacity="1"></stop></linearGradient></defs><defs><linearGradient id="grad2_2" x1="0%" y1="0%" x2="100%" y2="100%"><stop offset="30%" stop-color="#353d99" stop-opacity="1"></stop><stop offset="70%" stop-color="#151948" stop-opacity="1"></stop></linearGradient></defs><g transform="translate(450, 0)"><path d="M0 337.5C-34.1 333.4 -68.2 329.3 -104.3 321C-140.4 312.7 -178.4 300.1 -197.5 271.8C-216.6 243.6 -216.9 199.6 -233.8 169.9C-250.7 140.2 -284.3 124.8 -304.3 98.9C-324.4 73 -330.9 36.5 -337.5 0L0 0Z" fill="#242a6f"></path><path d="M0 225C-22.7 222.3 -45.5 219.5 -69.5 214C-93.6 208.4 -118.9 200.1 -131.7 181.2C-144.4 162.4 -144.6 133 -155.9 113.2C-167.1 93.5 -189.5 83.2 -202.9 65.9C-216.3 48.6 -220.6 24.3 -225 0L0 0Z" fill="#4651c4"></path><path d="M0 112.5C-11.4 111.1 -22.7 109.8 -34.8 107C-46.8 104.2 -59.5 100 -65.8 90.6C-72.2 81.2 -72.3 66.5 -77.9 56.6C-83.6 46.7 -94.8 41.6 -101.4 33C-108.1 24.3 -110.3 12.2 -112.5 0L0 0Z" fill="#5865f2"></path></g><g transform="translate(0, 900)"><path d="M0 -337.5C28.1 -311.3 56.3 -285.2 89.9 -276.8C123.6 -268.3 162.8 -277.7 194 -267C225.1 -256.3 248.2 -225.6 269.4 -195.7C290.6 -165.9 309.9 -136.8 321 -104.3C332 -71.8 334.8 -35.9 337.5 0L0 0Z" fill="#242a6f"></path><path d="M0 -225C18.8 -207.6 37.5 -190.1 59.9 -184.5C82.4 -178.9 108.5 -185.1 129.3 -178C150.1 -170.9 165.5 -150.4 179.6 -130.5C193.7 -110.6 206.6 -91.2 214 -69.5C221.3 -47.9 223.2 -23.9 225 0L0 0Z" fill="#4651c4"></path><path d="M0 -112.5C9.4 -103.8 18.8 -95.1 30 -92.3C41.2 -89.4 54.3 -92.6 64.7 -89C75 -85.4 82.7 -75.2 89.8 -65.2C96.9 -55.3 103.3 -45.6 107 -34.8C110.7 -23.9 111.6 -12 112.5 0L0 0Z" fill="#5865f2"></path></g></svg>