<svg id="レイヤー_1" data-name="レイヤー 1" xmlns="http://www.w3.org/2000/svg" viewBox="0 0 1024 1024"><defs><style>.cls-1{fill:#101010;}.cls-2{fill:#5865f2;}.cls-3{fill:#fff;}</style></defs><path class="cls-1" d="M499,5.89,102.69,182a16,16,0,0,0-9.5,14.62V465.47c0,258.26,178.69,499.78,418.81,558.41,240.12-58.63,418.81-300.15,418.81-558.41V196.65a16,16,0,0,0-9.5-14.62L525,5.89A32.08,32.08,0,0,0,499,5.89Z"/><path class="cls-2" d="M596,501.78h0a989.6,989.6,0,0,1-87.76-101.07h0c-11.94-13.2-24.86-25.65-35.62-39.74-23.42-30.67-46.75-57.25-92.51-49.67-17.15,2.85-25-5.81-43.42-9.92-7.55-1.68-5.83-2-21.25-6-8.07,0-18.11,1-15.44,4.55,23.4,19.73,41.36,49.86,72.44,60.44h0c12.42,9.45,11.44,21.33-1.72,25.41-19.76,6.13-18.86-10.07-20.56-22.37a6.17,6.17,0,0,0-2.21-3.92c-18.71-15.45-37.34-33.87-51.37-53.87-5.05-6.09-6.09,1.56-7.58,9.57-3.09,16.5,15.49,39.47,12.9,54.26-11.51,65.69,33.75,95.95,75.21,129.68,12.19,9.92,23.38,21.06,35,31.64h0c31.26,24.18,62,48.94,88.94,78h0c35.14,29.74,70.47,59.27,105.37,89.29,44.09,37.93,71.66,41.77,99.31,13.06,27-28,22.93-54.69-13.59-96.74C659.8,577.17,628,539.35,596,501.78Z"/><path class="cls-3" d="M599.51,496.7c13.57,21.65,30.79,17.37,47.42-1,11.88-13.14,58.93-65,65.84-81.44,8.58-20.4,5.13-38.91,6.8-50.56,4.44-30.81,10.06-38.14,15.78-59.76-24.59,12.06-44.49,38.67-64.6,56.77h0c-1,11.73,1.34,25.75-16.72,26.59-7.82.36-12.88-4.8-13.51-11.75-1.24-13.65,5.66-18.84,17.61-17.31a5.71,5.71,0,0,0,5-1.94c18.24-21.11,46.07-34,54.63-63.41h0c-22.52,6.06-45.86,19.27-67.39,16.78C593,303,564,338.3,534.61,376.31c-3.94,5.09-9,16.73-13.19,21.59a5.73,5.73,0,0,0-.62,6.65c21.53,36.81,55.72,56.51,78.71,92.15Z"/><path class="cls-3" d="M406.54,535.81h0c-46.17,31-79.91,73.93-106.38,121.12-12.2,21.76,2.09,46.11,23,61.26,19.84,14.35,43.09,18.89,62.58,2.63,37.84-31.57,78.19-60.57,110.64-98.18a6.2,6.2,0,0,0-.61-8.7c-29.76-26-51.67-47.18-81.42-73.22C414.38,540.72,409.16,534.46,406.54,535.81Z"/></svg>